<svg width="72" height="56" viewBox="0 0 72 56" fill="none" xmlns="http://www.w3.org/2000/svg">
<g clip-path="url(#clip0_1374_368)">
<path d="M40.6388 16.87L39.2899 15.87C39.0791 15.7043 38.8094 15.626 38.5395 15.6522C38.2696 15.6784 38.0212 15.807 37.8484 16.01L19.1807 36.83L19.469 37.14L24.0921 33C23.9381 32.9398 23.8106 32.8291 23.7318 32.6871C23.6531 32.5451 23.6281 32.3807 23.6611 32.2227C23.6942 32.0646 23.7832 31.9227 23.9127 31.8218C24.0422 31.7208 24.2041 31.6671 24.3702 31.67C24.5199 31.67 24.6657 31.7166 24.7862 31.803C24.9066 31.8894 24.9954 32.011 25.0394 32.15L31.135 26.66C31.2284 26.587 31.3446 26.5472 31.4645 26.5472C31.5844 26.5472 31.7007 26.587 31.794 26.66L32.1029 26.88C32.2074 26.9528 32.3362 26.9849 32.4638 26.9701C32.5915 26.9553 32.7088 26.8946 32.7928 26.8L40.7623 18.12C40.8471 18.0339 40.9117 17.931 40.9518 17.8184C40.9919 17.7058 41.0066 17.5862 40.9949 17.4676C40.9832 17.349 40.9453 17.2343 40.8839 17.1312C40.8224 17.028 40.7388 16.939 40.6388 16.87Z" fill="#303030"/>
<path d="M49.4114 22.73C45.3262 25.553 40.7497 27.6364 35.9022 28.88C31.0911 30.0683 26.168 30.7786 21.209 31C21.3088 31.7102 21.4884 32.4077 21.7444 33.08C24.5451 35.54 45.6325 31.34 49.7512 26.48C50.6264 25.47 49.4114 22.73 49.4114 22.73ZM24.37 33C24.2316 33 24.0962 32.9601 23.981 32.8854C23.8659 32.8107 23.7762 32.7045 23.7232 32.5802C23.6702 32.4559 23.6563 32.3192 23.6833 32.1873C23.7103 32.0554 23.777 31.9342 23.8749 31.8391C23.9729 31.744 24.0976 31.6793 24.2334 31.653C24.3693 31.6268 24.51 31.6403 24.638 31.6917C24.7659 31.7432 24.8753 31.8304 24.9522 31.9422C25.0291 32.054 25.0702 32.1855 25.0702 32.32C25.0716 32.4097 25.0544 32.4987 25.0197 32.5818C24.985 32.6649 24.9335 32.7404 24.8682 32.8038C24.8029 32.8672 24.7252 32.9173 24.6396 32.951C24.554 32.9847 24.4624 33.0013 24.37 33Z" fill="#303030"/>
<path d="M4.44563 21.2899L4.61038 20.5999L7.2875 21.1899C7.50836 21.5861 7.64493 22.0214 7.68907 22.4699C7.74017 22.945 7.70884 23.425 7.5964 23.8899C7.46311 24.5352 7.15777 25.1352 6.71089 25.6299C6.28573 26.097 5.73752 26.4428 5.12521 26.6299C4.49412 26.8189 3.8229 26.8431 3.17915 26.6999C2.53399 26.5646 1.9393 26.2603 1.45962 25.8199C0.987283 25.3969 0.648109 24.8526 0.481442 24.2499C0.296551 23.5954 0.296551 22.9045 0.481442 22.2499C0.592108 21.76 0.79078 21.2929 1.06835 20.8699C1.33106 20.4853 1.68392 20.1665 2.09801 19.9399L2.46869 20.4899C2.11377 20.7016 1.80911 20.9839 1.57482 21.3183C1.34053 21.6527 1.18195 22.0316 1.10954 22.4299C0.981843 22.9473 0.992477 23.4877 1.14042 23.9999C1.27878 24.4863 1.55322 24.9259 1.93326 25.2699C2.3239 25.6367 2.81263 25.8896 3.3439 25.9999C3.85906 26.1404 4.40411 26.1404 4.91928 25.9999C5.41278 25.8417 5.85603 25.5628 6.20635 25.1899C6.56637 24.7873 6.81447 24.3019 6.92712 23.7799C7.09653 23.1468 7.05324 22.4776 6.80356 21.8699L4.44563 21.2899Z" fill="#303030"/>
<path d="M10.2739 15.0001L7.87482 18.1101L8.90448 19.9001L8.43084 20.5201L4.62109 13.7701L5.06385 13.1801L12.8172 14.8001L12.3332 15.4201L10.2739 15.0001ZM9.59435 14.8401L5.47571 13.9401L7.53503 17.5301L9.59435 14.8401Z" fill="#303030"/>
<path d="M9.59375 8.54998L10.2115 8.09998L14.1346 13.2L17.3677 10.85L17.759 11.36L13.9183 14.15L9.59375 8.54998Z" fill="#303030"/>
<path d="M16.0811 4.37996L16.7709 4.07996L19.4892 9.85996L23.1651 8.23996L23.4328 8.81996L19.0671 10.75L16.0811 4.37996Z" fill="#303030"/>
<path d="M29.6523 6.68003L29.8067 7.31003L24.8437 8.44003L23.1963 1.62003L28.0151 0.530029L28.1593 1.15003L24.0406 2.08003L24.6275 4.50003L28.2519 3.67003L28.4064 4.29003L24.7717 5.11003L25.3895 7.64003L29.6523 6.68003Z" fill="#303030"/>
<path d="M36.726 6.92997L35.0064 4.72997C34.8144 4.74029 34.6219 4.74029 34.4298 4.72997L32.4941 4.78997L32.5662 7.00997H31.8042L31.5674 0.00996866L34.3063 -3.1339e-05C35.0807 -0.0694894 35.8551 0.132721 36.4892 0.569969C36.7564 0.778962 36.9712 1.04418 37.1175 1.3456C37.2638 1.64702 37.3376 1.97678 37.3335 2.30997C37.3635 2.80416 37.23 3.29473 36.9525 3.70997C36.6566 4.10853 36.2386 4.40603 35.7581 4.55997L37.56 6.89997L36.726 6.92997ZM36.0052 3.63997C36.1903 3.47531 36.3339 3.27154 36.425 3.04439C36.516 2.81725 36.5521 2.57281 36.5303 2.32997C36.5357 2.08584 36.4837 1.84374 36.3785 1.62198C36.2732 1.40022 36.1174 1.20461 35.9228 1.04997C35.4483 0.737448 34.8776 0.592707 34.3063 0.639969L32.3499 0.709969L32.4735 4.20997L34.3887 4.14997C34.9727 4.17096 35.5454 3.99026 36.0052 3.63997Z" fill="#303030"/>
<path d="M42.1726 5.07L41.8019 7.46L41.0502 7.35L41.4312 5L39.2998 0L40.1029 0.12L41.9254 4.38L45.0144 0.85L45.7352 1L42.1726 5.07Z" fill="#303030"/>
<path d="M52.3557 4.65005L53.2515 5.78005L52.8602 6.08005L51.9644 4.92005L51.3981 6.23005L50.9657 6.05005L51.5423 4.74005L50.0596 4.93005V4.45005L51.5217 4.29005L50.6156 3.16005L51.0172 2.86005L51.81 4.00005L52.366 2.68005L52.8088 2.86005L52.2836 4.20005L53.7664 4.00005V4.49005L52.3557 4.65005Z" fill="#303030"/>
<path d="M55.7953 12.71C55.5522 12.346 55.4005 11.9315 55.3525 11.5L55.96 11.24C56.0056 11.6364 56.1391 12.0185 56.3513 12.36C56.5813 12.743 56.8814 13.0819 57.2368 13.36C57.6038 13.7013 58.0721 13.9217 58.5754 13.99C58.7572 14.0064 58.9404 13.9794 59.1091 13.9115C59.2777 13.8435 59.4268 13.7366 59.5433 13.6C59.6287 13.5085 59.6938 13.4009 59.7345 13.284C59.7752 13.167 59.7908 13.0431 59.7801 12.92C59.746 12.6763 59.662 12.4417 59.533 12.23C59.3395 11.9231 59.1298 11.626 58.9049 11.34C58.6307 10.9912 58.383 10.6236 58.1635 10.24C57.9958 9.95296 57.9038 9.63003 57.8958 9.30004C57.8951 8.92946 58.0385 8.5723 58.2974 8.30004C58.5218 8.03617 58.8178 7.83869 59.152 7.73004C59.5253 7.62531 59.9216 7.62531 60.2949 7.73004C60.7759 7.88282 61.2206 8.12763 61.6026 8.45004C61.9196 8.70611 62.2001 9.00205 62.4366 9.33004C62.6553 9.6342 62.819 9.97239 62.9205 10.33L62.3336 10.63C62.2313 10.2967 62.0786 9.97991 61.8806 9.69004C61.6833 9.43118 61.4513 9.19913 61.1907 9.00004C60.8291 8.66028 60.3623 8.44587 59.8625 8.39004C59.6788 8.37512 59.4942 8.40478 59.3252 8.47635C59.1563 8.54792 59.0083 8.65915 58.8946 8.80004C58.807 8.89013 58.7405 8.99753 58.6996 9.11489C58.6587 9.23226 58.6445 9.35681 58.6578 9.48004C58.6818 9.73221 58.7665 9.97538 58.9049 10.19C59.049 10.42 59.255 10.72 59.533 11.08C59.8086 11.4208 60.0564 11.7819 60.2743 12.16C60.4457 12.4462 60.5412 12.7692 60.5523 13.1C60.553 13.4706 60.4096 13.8278 60.1508 14.1C59.9255 14.3675 59.625 14.5656 59.2858 14.67C58.9132 14.7793 58.5156 14.7793 58.1429 14.67C57.6586 14.5177 57.2105 14.2729 56.825 13.95C56.4093 13.5987 56.0608 13.179 55.7953 12.71Z" fill="#303030"/>
<path d="M66.1536 14.17L64.7018 12.17L65.2372 11.8L68.5836 16.44L68.0482 16.81L66.5963 14.81L61.2215 18.46L60.7891 17.85L66.1536 14.17Z" fill="#303030"/>
<path d="M63.8471 22.39C64.0309 21.7856 64.3881 21.2445 64.8768 20.83C65.3549 20.4141 65.9373 20.1279 66.5654 20C67.2057 19.8572 67.8735 19.8814 68.5012 20.07C69.107 20.2645 69.65 20.6092 70.0766 21.07C70.5201 21.5656 70.8219 22.1656 70.9518 22.81C71.1223 23.4426 71.1223 24.1073 70.9518 24.74C70.7629 25.3421 70.4066 25.8819 69.9221 26.3C69.4308 26.727 68.834 27.0233 68.1899 27.16C67.5457 27.2967 66.8761 27.2691 66.2462 27.08C65.6358 26.8949 65.0904 26.5487 64.6708 26.08C64.2293 25.587 63.9276 24.9907 63.7956 24.35C63.6383 23.7033 63.6561 23.028 63.8471 22.39ZM65.196 25.57C65.5397 25.9502 65.9852 26.2306 66.483 26.38C66.9961 26.5245 67.5384 26.5417 68.0601 26.4298C68.5818 26.318 69.0662 26.0808 69.4691 25.74C69.8491 25.4004 70.1298 24.9691 70.2825 24.49C70.4261 23.9841 70.4401 23.4517 70.3235 22.9393C70.2068 22.4269 69.963 21.95 69.6132 21.55C69.2543 21.1679 68.7952 20.8879 68.2849 20.74C67.7654 20.606 67.2188 20.606 66.6993 20.74C66.175 20.8377 65.6897 21.0768 65.2989 21.43C64.9154 21.7708 64.6343 22.2062 64.4855 22.69C64.3457 23.1977 64.3457 23.7322 64.4855 24.24C64.5983 24.7361 64.8433 25.1947 65.196 25.57Z" fill="#303030"/>
<path d="M63.0648 34L65.7316 33C65.7316 32.82 65.7934 32.64 65.8449 32.45L66.3494 30.64L64.1665 30.09L64.3621 29.38L71.3226 31.19L70.6225 33.72C70.4648 34.4582 70.0413 35.1177 69.4281 35.58C69.1463 35.7701 68.8231 35.8942 68.4837 35.9428C68.1443 35.9914 67.798 35.963 67.4717 35.86C66.9748 35.7553 66.5296 35.4892 66.2095 35.1056C65.8893 34.722 65.7135 34.2438 65.711 33.75L62.8691 34.75L63.0648 34ZM66.5141 34.28C66.6348 34.4925 66.7984 34.6792 66.9952 34.8287C67.192 34.9782 67.4179 35.0876 67.6593 35.1502C67.9007 35.2128 68.1526 35.2273 68.4 35.1929C68.6473 35.1585 68.885 35.0759 69.0986 34.95C69.5531 34.5955 69.8632 34.0958 69.9738 33.54L70.468 31.74L66.9775 30.83L66.4832 32.63C66.2933 33.1664 66.3042 33.7507 66.5141 34.28Z" fill="#303030"/>
<path d="M59.3679 40.44L58.8428 40.05L61.9318 36.1L67.6773 40.33L64.6912 44.16L64.1661 43.77L66.6888 40.54L64.6295 39.03L62.3745 41.92L61.8597 41.54L64.1661 38.65L62.0347 37.08L59.3679 40.44Z" fill="#303030"/>
<path d="M56.9587 48.41L55.4863 48.49V48.01L56.9587 48L56.1659 46.81L56.5675 46.56L57.35 47.76L57.9884 46.42L58.4312 46.65L57.731 47.91L59.2034 47.83V48.32H57.7104L58.5032 49.51L58.1017 49.76L57.3191 48.56L56.6395 49.86L56.2071 49.62L56.9587 48.41Z" fill="#303030"/>
<path d="M43.5734 47.61L44.8193 48.28C45.0281 47.8904 45.3197 47.5481 45.6746 47.2757C46.0296 47.0034 46.4399 46.8072 46.8786 46.7C47.2878 46.5761 47.7182 46.5319 48.1451 46.57C48.5154 46.5976 48.8712 46.722 49.1747 46.93C49.4491 47.1309 49.6509 47.4109 49.7513 47.73C49.8754 48.1248 49.8536 48.5493 49.6896 48.93C49.4312 49.4474 49.0829 49.9176 48.6599 50.32C48.9994 50.4972 49.3142 50.7156 49.5969 50.97C49.791 51.1649 49.9356 51.4012 50.019 51.66C50.0718 51.8618 50.0751 52.0728 50.0286 52.276C49.9821 52.4792 49.8871 52.669 49.7513 52.83C49.4765 53.2147 49.0663 53.4885 48.5981 53.6C48.187 53.7523 47.7325 53.7523 47.3213 53.6C47.1385 53.5237 46.9764 53.4072 46.8478 53.2597C46.7191 53.1122 46.6275 52.9377 46.58 52.75C46.472 52.4199 46.4978 52.0623 46.6521 51.75C46.8884 51.2954 47.1977 50.8802 47.5685 50.52L45.087 49.18C44.9923 49.651 44.9715 50.1331 45.0252 50.61H44.3971C44.3548 50.0227 44.4246 49.4328 44.603 48.87L43.3057 48.17L43.5734 47.61ZM45.365 48.61L48.0936 50.08C48.4512 49.7484 48.7472 49.3593 48.9688 48.93C49.0819 48.6401 49.0819 48.32 48.9688 48.03C48.9221 47.8568 48.8318 47.6975 48.706 47.5666C48.5801 47.4357 48.4228 47.3372 48.248 47.28C47.8206 47.1398 47.3575 47.1398 46.9301 47.28C46.5808 47.3695 46.2559 47.5323 45.9784 47.7569C45.7009 47.9815 45.4774 48.2625 45.3238 48.58L45.365 48.61ZM49.2365 52.61C49.3038 52.4995 49.3459 52.3763 49.3602 52.2487C49.3744 52.1211 49.3603 51.9919 49.3189 51.87C49.2558 51.6726 49.1425 51.4937 48.9894 51.35C48.7273 51.1353 48.4405 50.9508 48.1348 50.8C47.8226 51.0998 47.5494 51.4357 47.3213 51.8C47.1969 52.0272 47.1674 52.2923 47.239 52.54C47.2716 52.6545 47.3289 52.7609 47.407 52.8522C47.4851 52.9436 47.5822 53.0178 47.692 53.07C47.9542 53.166 48.2433 53.166 48.5054 53.07C48.7854 52.9975 49.0298 52.831 49.1953 52.6L49.2365 52.61Z" fill="#303030"/>
<path d="M31.0215 55.3199L31.1656 48.3199H31.8967L31.7834 53.9199L34.7077 49.2599H35.0681L37.8069 53.9999L37.9099 48.4299H38.641L38.5071 55.4299H37.879L34.8518 50.1999L31.6496 55.3299L31.0215 55.3199Z" fill="#303030"/>
<path d="M27.438 48C27.9088 48.4358 28.2458 48.9901 28.4112 49.601C28.5767 50.212 28.5641 50.8556 28.375 51.46C28.2058 52.0789 27.8678 52.642 27.3968 53.09C26.939 53.527 26.365 53.8317 25.739 53.97C25.0787 54.1147 24.3913 54.094 23.7415 53.91C23.0938 53.7564 22.498 53.4429 22.0117 53C21.5478 52.5697 21.2163 52.0227 21.0541 51.42C20.8957 50.7969 20.9074 50.1446 21.088 49.5273C21.2686 48.91 21.6118 48.3491 22.0837 47.9C22.5334 47.4641 23.0952 47.1533 23.7106 47C24.3675 46.8557 25.0514 46.8763 25.6978 47.06C26.3522 47.221 26.9519 47.545 27.438 48ZM23.9268 47.65C23.4232 47.7639 22.9628 48.0134 22.5986 48.37C22.2193 48.7369 21.9489 49.1963 21.816 49.7C21.6724 50.2004 21.6724 50.7295 21.816 51.23C21.9375 51.7169 22.198 52.1606 22.5677 52.51C22.9554 52.8782 23.434 53.1433 23.9577 53.28C24.4814 53.4095 25.0301 53.4095 25.5537 53.28C26.0578 53.1596 26.5198 52.9111 26.8923 52.56C27.2695 52.1916 27.5395 51.7327 27.6748 51.23C27.8187 50.7262 27.8187 50.1938 27.6748 49.69C27.543 49.2049 27.2799 48.7629 26.9128 48.41C26.5231 48.0413 26.0401 47.7791 25.5125 47.65C24.9937 47.5107 24.4457 47.5107 23.9268 47.65Z" fill="#303030"/>
<path d="M16.1325 43L16.4105 45.75C16.5871 45.8233 16.7591 45.9068 16.9254 46L18.6037 46.94L19.7363 45L20.4056 45.37L16.8018 51.4L14.4542 50.09C13.7603 49.7515 13.2129 49.1844 12.9097 48.49C12.7978 48.1772 12.76 47.8439 12.7992 47.5149C12.8384 47.1859 12.9536 46.8698 13.1362 46.59C13.3755 46.1518 13.755 45.8008 14.2174 45.59C14.687 45.4011 15.2064 45.3626 15.7001 45.48L15.4015 42.54L16.1325 43ZM14.9587 46.16C14.7169 46.219 14.4898 46.3247 14.291 46.4708C14.0922 46.617 13.9258 46.8006 13.8018 47.0107C13.6778 47.2207 13.5987 47.4529 13.5692 47.6934C13.5398 47.9338 13.5606 48.1776 13.6304 48.41C13.8718 48.9276 14.2902 49.3481 14.8146 49.6L16.4723 50.53L18.2742 47.53L16.6165 46.6C16.14 46.2533 15.5533 46.0799 14.9587 46.11V46.16Z" fill="#303030"/>
<path d="M10.037 38.31L10.5003 37.86L14.0527 41.41L8.90436 46.29L5.47559 42.85L5.94923 42.4L8.86317 45.31L10.6239 43.58L8.07033 41L8.56457 40.54L11.1696 43.14L13.0848 41.33L10.037 38.31Z" fill="#303030"/>
<path d="M2.38689 34.38L2.634 33L3.11794 33.07L2.83994 34.49L4.20938 34L4.37413 34.44L2.98409 34.9L4.12701 35.84L3.79752 36.2L2.69578 35.2L2.43837 36.62L1.94413 36.53L2.23244 35.11L0.852691 35.59L0.698242 35.2L2.07799 34.73L0.935064 33.8L1.27485 33.44L2.38689 34.38Z" fill="#303030"/>
</g>
<defs>
<clipPath id="clip0_1374_368">
<rect width="70.9745" height="55.46" fill="white" transform="translate(0.327148)"/>
</clipPath>
</defs>
</svg>
